<svg width="100" height="50" xmlns="http://www.w3.org/2000/svg">

 <g>
  <title>background</title>
  <rect fill="none" id="canvas_background" height="52" width="102" y="-1" x="-1"/>
 </g>
 <g>
  <title>Layer 1</title>
  <rect id="svg_3" y="20.639967" x="2.748622" width="13.08981" height="8.4163" fill="#D2D2D2"/>
  <path id="svg_5" fill="#E7E3E6" d="m2.682522,23.885827l13.22199,0c1.29613,0 2.34685,-1.05072 2.34685,-2.34685l0,-1.79801c0,-1.29613 -1.05072,-2.34685 -2.34685,-2.34685l-13.22199,0c-1.29613,0 -2.34685,1.05072 -2.34685,2.34685l0,1.79801c0,1.29613 1.05072,2.34685 2.34685,2.34685z"/>
  <path id="svg_6" fill="#E7E3E6" d="m2.682522,32.302127l13.22199,0c1.29613,0 2.34685,-1.05072 2.34685,-2.34685l0,-1.79801c0,-1.29613 -1.05072,-2.34685 -2.34685,-2.34685l-13.22199,0c-1.29613,0 -2.34685,1.05072 -2.34685,2.34685l0,1.79801c0,1.29613 1.05072,2.34685 2.34685,2.34685z"/>
  <circle id="svg_8" r="1.2493" fill="#EC6E62" cy="29.056267" cx="14.793732"/>
  <circle id="svg_9" r="1.2493" fill="#85BD57" cy="29.056267" cx="11.243102"/>
  <circle id="svg_11" r="1.2493" fill="#EC6E62" cy="20.639967" cx="14.793732"/>
  <circle id="svg_12" r="1.2493" fill="#85BD57" cy="20.639967" cx="11.243102"/>
  <rect id="svg_14" y="28.969584" x="30.900677" width="17.96187" height="11.88797" fill="#4E4C4D"/>
  <path id="svg_15" fill="#656766" d="m30.824637,28.964754l18.11395,0c1.49126,0 2.70016,-1.2089 2.70016,-2.70016l0,-2.06869c0,-1.49126 -1.2089,-2.70016 -2.70016,-2.70016l-18.11395,0c-1.49126,0 -2.70016,1.2089 -2.70016,2.70016l0,2.06869c0,1.49125 1.20891,2.70016 2.70016,2.70016z"/>
  <path id="svg_16" fill="#656766" d="m30.824637,38.648074l18.11395,0c1.49126,0 2.70016,-1.2089 2.70016,-2.70016l0,-2.0687c0,-1.49126 -1.2089,-2.70016 -2.70016,-2.70016l-18.11395,0c-1.49126,0 -2.70016,1.2089 -2.70016,2.70016l0,2.0687c0,1.49126 1.20891,2.70016 2.70016,2.70016z"/>
  <path id="svg_17" fill="#656766" d="m30.824637,48.326574l18.11395,0c1.49126,0 2.70016,-1.2089 2.70016,-2.70016l0,-2.0687c0,-1.49126 -1.2089,-2.70016 -2.70016,-2.70016l-18.11395,0c-1.49126,0 -2.70016,1.2089 -2.70016,2.70016l0,2.0687c0,1.49126 1.20891,2.70016 2.70016,2.70016z"/>
  <circle id="svg_19" r="1.43737" fill="#EC6E62" cy="44.592064" cx="47.660587"/>
  <circle id="svg_20" r="1.43737" fill="#85BD57" cy="44.592064" cx="43.575427"/>
  <circle id="svg_22" r="1.43737" fill="#EC6E62" cy="34.913574" cx="47.660587"/>
  <circle id="svg_23" r="1.43737" fill="#85BD57" cy="34.913574" cx="43.575427"/>
  <circle id="svg_25" r="1.43737" fill="#EC6E62" cy="25.230254" cx="47.660587"/>
  <circle id="svg_26" r="1.43737" fill="#85BD57" cy="25.230254" cx="43.575427"/>
  <rect id="svg_27" y="9.602924" x="30.900677" width="17.96187" height="11.88797" fill="#4E4C4D"/>
  <path id="svg_28" fill="#656766" d="m30.824637,9.598084l18.11395,0c1.49126,0 2.70016,-1.2089 2.70016,-2.70016l0,-2.06869c0,-1.49126 -1.2089,-2.70016 -2.70016,-2.70016l-18.11395,0c-1.49126,0 -2.70016,1.2089 -2.70016,2.70016l0,2.06869c0,1.49126 1.20891,2.70016 2.70016,2.70016z"/>
  <path id="svg_29" fill="#656766" d="m30.824637,19.281414l18.11395,0c1.49126,0 2.70016,-1.2089 2.70016,-2.70016l0,-2.06869c0,-1.49126 -1.2089,-2.70016 -2.70016,-2.70016l-18.11395,0c-1.49126,0 -2.70016,1.2089 -2.70016,2.70016l0,2.06869c0,1.49126 1.20891,2.70016 2.70016,2.70016z"/>
  <g id="svg_30">
   <circle id="svg_31" r="1.43737" fill="#EC6E62" cy="15.546914" cx="47.660587"/>
   <circle id="svg_32" r="1.43737" fill="#85BD57" cy="15.546914" cx="43.575427"/>
  </g>
  <g id="svg_33">
   <circle id="svg_34" r="1.43737" fill="#EC6E62" cy="5.863584" cx="47.660587"/>
   <circle id="svg_35" r="1.43737" fill="#85BD57" cy="5.863584" cx="43.575427"/>
  </g>
  <path id="svg_36" fill="#53B1E2" d="m24.193177,25.517364l-3.53574,3.53574c-0.3568,0.3568 -0.93529,0.3568 -1.29208,-0.00001l0,0c-0.35659,-0.3566 -0.35681,-0.93467 -0.0005,-1.29155l2.88563,-2.89021l-2.886,-2.886c-0.35625,-0.35625 -0.35687,-0.93364 -0.00141,-1.29066l0.00229,-0.0023c0.35657,-0.35812 0.93613,-0.35876 1.29348,-0.00141l3.53433,3.53434c0.35679,0.35678 0.35679,0.93526 0,1.29206z"/>
  <rect id="svg_37" y="29.045526" x="54.974127" width="17.96187" height="11.88797" fill="#4E4C4D"/>
  <path id="svg_38" fill="#656766" d="m54.898083,29.040697l18.11395,0c1.49126,0 2.70016,-1.2089 2.70016,-2.70016l0,-2.06869c0,-1.49126 -1.2089,-2.70016 -2.70016,-2.70016l-18.11395,0c-1.49126,0 -2.70016,1.2089 -2.70016,2.70016l0,2.06869c0,1.49125 1.20891,2.70016 2.70016,2.70016z"/>
  <path id="svg_39" fill="#656766" d="m54.898083,38.724017l18.11395,0c1.49126,0 2.70016,-1.2089 2.70016,-2.70016l0,-2.0687c0,-1.49126 -1.2089,-2.70016 -2.70016,-2.70016l-18.11395,0c-1.49126,0 -2.70016,1.2089 -2.70016,2.70016l0,2.0687c0,1.49126 1.20891,2.70016 2.70016,2.70016z"/>
  <path id="svg_40" fill="#656766" d="m54.898083,48.402517l18.11395,0c1.49126,0 2.70016,-1.2089 2.70016,-2.70016l0,-2.0687c0,-1.49126 -1.2089,-2.70016 -2.70016,-2.70016l-18.11395,0c-1.49126,0 -2.70016,1.2089 -2.70016,2.70016l0,2.0687c0,1.49126 1.20891,2.70016 2.70016,2.70016z"/>
  <circle id="svg_41" r="1.43737" fill="#EC6E62" cy="44.668006" cx="71.734037"/>
  <circle id="svg_42" r="1.43737" fill="#85BD57" cy="44.668006" cx="67.648877"/>
  <circle id="svg_43" r="1.43737" fill="#EC6E62" cy="34.989516" cx="71.734037"/>
  <circle id="svg_44" r="1.43737" fill="#85BD57" cy="34.989516" cx="67.648877"/>
  <circle id="svg_45" r="1.43737" fill="#EC6E62" cy="25.306196" cx="71.734037"/>
  <circle id="svg_46" r="1.43737" fill="#85BD57" cy="25.306196" cx="67.648877"/>
  <rect id="svg_47" y="9.678866" x="54.974127" width="17.96187" height="11.88797" fill="#4E4C4D"/>
  <path id="svg_48" fill="#656766" d="m54.898083,9.674027l18.11395,0c1.49126,0 2.70016,-1.2089 2.70016,-2.70016l0,-2.06869c0,-1.49126 -1.2089,-2.70016 -2.70016,-2.70016l-18.11395,0c-1.49126,0 -2.70016,1.2089 -2.70016,2.70016l0,2.06869c0,1.49126 1.20891,2.70016 2.70016,2.70016z"/>
  <path id="svg_49" fill="#656766" d="m54.898083,19.357357l18.11395,0c1.49126,0 2.70016,-1.2089 2.70016,-2.70016l0,-2.06869c0,-1.49126 -1.2089,-2.70016 -2.70016,-2.70016l-18.11395,0c-1.49126,0 -2.70016,1.2089 -2.70016,2.70016l0,2.06869c0,1.49126 1.20891,2.70016 2.70016,2.70016z"/>
  <g id="svg_52">
   <circle id="svg_50" r="1.43737" fill="#EC6E62" cy="15.622856" cx="71.734037"/>
   <circle id="svg_51" r="1.43737" fill="#85BD57" cy="15.622856" cx="67.648877"/>
  </g>
  <g id="svg_55">
   <circle id="svg_53" r="1.43737" fill="#EC6E62" cy="5.939526" cx="71.734037"/>
   <circle id="svg_54" r="1.43737" fill="#85BD57" cy="5.939526" cx="67.648877"/>
  </g>
  <rect id="svg_56" y="29.045526" x="79.123519" width="17.96187" height="11.88797" fill="#4E4C4D"/>
  <path id="svg_57" fill="#656766" d="m79.047476,29.040697l18.11395,0c1.49126,0 2.70016,-1.2089 2.70016,-2.70016l0,-2.06869c0,-1.49126 -1.2089,-2.70016 -2.70016,-2.70016l-18.11395,0c-1.49126,0 -2.70016,1.2089 -2.70016,2.70016l0,2.06869c0,1.49125 1.20891,2.70016 2.70016,2.70016z"/>
  <path id="svg_58" fill="#656766" d="m79.047476,38.724017l18.11395,0c1.49126,0 2.70016,-1.2089 2.70016,-2.70016l0,-2.0687c0,-1.49126 -1.2089,-2.70016 -2.70016,-2.70016l-18.11395,0c-1.49126,0 -2.70016,1.2089 -2.70016,2.70016l0,2.0687c0,1.49126 1.20891,2.70016 2.70016,2.70016z"/>
  <path id="svg_59" fill="#656766" d="m79.047476,48.402517l18.11395,0c1.49126,0 2.70016,-1.2089 2.70016,-2.70016l0,-2.0687c0,-1.49126 -1.2089,-2.70016 -2.70016,-2.70016l-18.11395,0c-1.49126,0 -2.70016,1.2089 -2.70016,2.70016l0,2.0687c0,1.49126 1.20891,2.70016 2.70016,2.70016z"/>
  <circle id="svg_60" r="1.43737" fill="#EC6E62" cy="44.668006" cx="95.883429"/>
  <circle id="svg_61" r="1.43737" fill="#85BD57" cy="44.668006" cx="91.798269"/>
  <circle id="svg_62" r="1.43737" fill="#EC6E62" cy="34.989516" cx="95.883429"/>
  <circle id="svg_63" r="1.43737" fill="#85BD57" cy="34.989516" cx="91.798269"/>
  <circle id="svg_64" r="1.43737" fill="#EC6E62" cy="25.306196" cx="95.883429"/>
  <circle id="svg_65" r="1.43737" fill="#85BD57" cy="25.306196" cx="91.798269"/>
  <rect id="svg_66" y="9.678866" x="79.123519" width="17.96187" height="11.88797" fill="#4E4C4D"/>
  <path id="svg_67" fill="#656766" d="m79.047476,9.674027l18.11395,0c1.49126,0 2.70016,-1.2089 2.70016,-2.70016l0,-2.06869c0,-1.49126 -1.2089,-2.70016 -2.70016,-2.70016l-18.11395,0c-1.49126,0 -2.70016,1.2089 -2.70016,2.70016l0,2.06869c0,1.49126 1.20891,2.70016 2.70016,2.70016z"/>
  <path id="svg_68" fill="#656766" d="m79.047476,19.357357l18.11395,0c1.49126,0 2.70016,-1.2089 2.70016,-2.70016l0,-2.06869c0,-1.49126 -1.2089,-2.70016 -2.70016,-2.70016l-18.11395,0c-1.49126,0 -2.70016,1.2089 -2.70016,2.70016l0,2.06869c0,1.49126 1.20891,2.70016 2.70016,2.70016z"/>
  <g id="svg_71">
   <circle id="svg_69" r="1.43737" fill="#EC6E62" cy="15.622856" cx="95.883429"/>
   <circle id="svg_70" r="1.43737" fill="#85BD57" cy="15.622856" cx="91.798269"/>
  </g>
  <g id="svg_74">
   <circle id="svg_72" r="1.43737" fill="#EC6E62" cy="5.939526" cx="95.883429"/>
   <circle id="svg_73" r="1.43737" fill="#85BD57" cy="5.939526" cx="91.798269"/>
  </g>
 </g>
</svg>